<?xml version="1.0" encoding="utf-8"?>
<!-- Generator: Adobe Illustrator 16.0.5, SVG Export Plug-In . SVG Version: 6.00 Build 0)  -->
<!DOCTYPE svg PUBLIC "-//W3C//DTD SVG 1.1//EN" "http://www.w3.org/Graphics/SVG/1.1/DTD/svg11.dtd">
<svg version="1.1" id="Layer_1" xmlns="http://www.w3.org/2000/svg" xmlns:xlink="http://www.w3.org/1999/xlink" x="0px" y="0px"
	 width="174.976px" height="174.976px" viewBox="0 0 174.976 174.976" enable-background="new 0 0 174.976 174.976"
	 xml:space="preserve">
<g>
	<circle fill="#FFCE67" cx="87.488" cy="87.489" r="87.488"/>
	<g>
		<path fill="#E0915F" d="M90.679,19.442c-38.95,0-70.521,31.571-70.521,70.521c0,38.942,31.571,70.521,70.521,70.521
			c38.945,0,70.519-31.578,70.519-70.521C161.197,51.014,129.624,19.442,90.679,19.442z M75.092,57.521l6.583,13.379
			c-4.147,2.049-7.516,5.413-9.554,9.565l-13.386-6.584C62.229,66.785,67.998,61.016,75.092,57.521z M69.709,93.036
			c0.733,4.564,2.965,8.78,6.327,11.946l-10.219,10.859c-5.754-5.422-9.575-12.634-10.832-20.444L69.709,93.036z M81.338,124.683
			l3.75-14.435c4.473,1.157,9.229,0.807,13.479-1.001l5.849,13.719C97.135,126.059,88.997,126.663,81.338,124.683z M97.353,54.403
			c7.747,1.561,14.805,5.659,20.005,11.619l-11.251,9.792c-3.034-3.479-7.157-5.874-11.687-6.784L97.353,54.403z M108.163,101.25
			c2.565-3.844,3.802-8.447,3.498-13.064l14.88-0.985c0.523,7.889-1.59,15.771-5.984,22.347L108.163,101.25z"/>
	</g>
	<g>
		<path fill="#2C2E36" d="M86.412,13.878c-38.95,0-70.521,31.571-70.521,70.522c0,38.942,31.571,70.518,70.521,70.518
			c38.945,0,70.519-31.575,70.519-70.518C156.931,45.449,125.357,13.878,86.412,13.878z M86.412,132.062
			c-26.328,0-47.672-21.339-47.672-47.662c0-26.333,21.344-47.676,47.672-47.676c26.329,0,47.669,21.343,47.669,47.676
			C134.081,110.724,112.741,132.062,86.412,132.062z"/>
		<path fill="#5D626C" d="M87.952,18.955c17.713,0,33.808,6.886,45.786,18.115c-12.222-13.037-29.586-21.195-48.865-21.195
			c-36.998,0-66.986,29.988-66.986,66.986c0,19.276,8.158,36.643,21.197,48.864c-11.229-11.978-18.117-28.075-18.117-45.786
			C20.967,48.941,50.954,18.955,87.952,18.955z"/>
		<path fill="#5D626C" d="M86.631,35.082c12.822,0,24.506,4.87,33.302,12.865C110.87,37.975,97.8,31.715,83.264,31.715
			c-27.357,0-49.535,22.177-49.535,49.537c0,14.529,6.262,27.603,16.23,36.662c-7.99-8.795-12.861-20.477-12.861-33.294
			C37.098,57.258,59.274,35.082,86.631,35.082z"/>
		<path fill="#5D626C" d="M132.968,38.609c10.952,11.688,17.672,27.392,17.672,44.673c0,36.085-29.258,65.346-65.346,65.346
			c-17.281,0-32.984-6.721-44.672-17.675c11.923,12.72,28.865,20.678,47.676,20.678c36.09,0,65.346-29.259,65.346-65.346
			C153.644,67.474,145.686,50.531,132.968,38.609z"/>
		<path fill="none" d="M93.086,48.838l-2.933,14.627c4.529,0.913,8.652,3.305,11.688,6.787l11.25-9.792
			C107.891,54.498,100.833,50.399,93.086,48.838z"/>
		<path fill="none" d="M65.442,87.474l-14.724,2.361c1.257,7.81,5.079,15.021,10.832,20.443L71.77,99.42
			C68.407,96.251,66.176,92.035,65.442,87.474z"/>
		<path fill="none" d="M80.821,104.685l-3.75,14.436c7.659,1.978,15.798,1.373,23.078-1.718l-5.849-13.719
			C90.051,105.489,85.294,105.843,80.821,104.685z"/>
		<path fill="none" d="M103.896,95.687l12.394,8.297c4.395-6.577,6.508-14.459,5.985-22.349l-14.881,0.988
			C107.699,87.24,106.462,91.844,103.896,95.687z"/>
		<path fill="none" d="M70.826,51.958c-7.095,3.494-12.863,9.265-16.357,16.359l13.386,6.582c2.038-4.149,5.406-7.515,9.554-9.562
			L70.826,51.958z"/>
		<path fill="#A7ADBD" d="M86.412,39.813c-24.624,0-44.584,19.961-44.584,44.578c0,24.623,19.96,44.586,44.584,44.586
			c24.621,0,44.578-19.963,44.578-44.586C130.99,59.774,111.033,39.813,86.412,39.813z M61.551,110.278
			c-5.753-5.422-9.575-12.634-10.832-20.443l14.724-2.361c0.733,4.562,2.965,8.777,6.327,11.946L61.551,110.278z M67.854,74.899
			l-13.386-6.582c3.494-7.095,9.263-12.865,16.357-16.359l6.582,13.379C73.261,67.385,69.893,70.75,67.854,74.899z M77.071,119.12
			l3.75-14.436c4.473,1.158,9.229,0.805,13.479-1.001l5.849,13.719C92.869,120.493,84.73,121.098,77.071,119.12z M90.153,63.465
			l2.933-14.627c7.747,1.562,14.805,5.66,20.005,11.622l-11.25,9.792C98.806,66.77,94.683,64.378,90.153,63.465z M116.29,103.983
			l-12.394-8.297c2.565-3.843,3.803-8.446,3.498-13.063l14.881-0.988C122.798,89.524,120.685,97.406,116.29,103.983z"/>
		<path fill="#5D626C" d="M86.412,36.767c-26.302,0-47.63,21.323-47.63,47.625c0,26.311,21.328,47.638,47.63,47.638
			c26.305,0,47.627-21.327,47.627-47.638C134.039,58.09,112.717,36.767,86.412,36.767z M86.412,128.978
			c-24.624,0-44.584-19.963-44.584-44.586c0-24.617,19.96-44.578,44.584-44.578c24.621,0,44.578,19.961,44.578,44.578
			C130.99,109.015,111.033,128.978,86.412,128.978z"/>
		<path fill="#2C2E36" d="M72.558,98.588c-3.167-2.985-5.293-6.993-5.99-11.293l-0.178-1.127l-1.124,0.182L49.41,88.89l0.181,1.128
			c1.29,8.026,5.263,15.519,11.178,21.095l0.837,0.784l11.782-12.523L72.558,98.588z M61.551,110.278
			c-5.753-5.422-9.575-12.634-10.832-20.443l14.724-2.361c0.733,4.562,2.965,8.777,6.327,11.946L61.551,110.278z"/>
		<path fill="#2C2E36" d="M113.951,59.708c-5.339-6.128-12.674-10.39-20.646-11.988l-1.122-0.223l-0.223,1.122L88.807,64.36
			l1.119,0.221c4.27,0.864,8.197,3.14,11.054,6.425l0.755,0.857l12.968-11.293L113.951,59.708z M101.841,70.252
			c-3.035-3.482-7.158-5.874-11.688-6.787l2.933-14.627c7.747,1.562,14.805,5.66,20.005,11.622L101.841,70.252z"/>
		<path fill="#2C2E36" d="M123.415,81.561l-0.078-1.143l-1.137,0.073l-16.021,1.073l0.075,1.136
			c0.288,4.346-0.888,8.727-3.309,12.35L102.312,96l14.287,9.564l0.638-0.943C121.755,97.858,123.953,89.672,123.415,81.561z
			 M116.29,103.983l-12.394-8.297c2.565-3.843,3.803-8.446,3.498-13.063l14.881-0.988C122.798,89.524,120.685,97.406,116.29,103.983
			z"/>
		<path fill="#2C2E36" d="M71.352,50.426l-1.025,0.509c-7.296,3.594-13.293,9.585-16.884,16.876l-0.505,1.025l15.435,7.589
			l0.505-1.022c1.921-3.903,5.131-7.115,9.04-9.04l1.021-0.503L71.352,50.426z M67.854,74.899l-13.386-6.582
			c3.494-7.095,9.266-12.865,16.357-16.359l6.582,13.379C73.261,67.385,69.893,70.75,67.854,74.899z"/>
		<path fill="#2C2E36" d="M94.905,102.18l-1.05,0.45c-4.009,1.702-8.531,2.039-12.748,0.95l-1.104-0.289l-4.322,16.647l1.107,0.288
			c7.867,2.035,16.32,1.407,23.806-1.774l1.053-0.452L94.905,102.18z M77.071,119.12l3.75-14.436
			c4.473,1.158,9.229,0.805,13.479-1.001l5.849,13.719C92.869,120.493,84.73,121.098,77.071,119.12z"/>
		<path fill="#2C2E36" d="M92.28,83.41c0,3.508-2.842,6.35-6.349,6.35s-6.346-2.842-6.346-6.35c0-3.504,2.839-6.346,6.346-6.346
			S92.28,79.906,92.28,83.41z"/>
		<path fill="#2C2E36" d="M89.345,93.627c0,1.476-1.194,2.671-2.671,2.671s-2.671-1.195-2.671-2.671c0-1.47,1.194-2.665,2.671-2.665
			S89.345,92.157,89.345,93.627z"/>
		<path fill="#2C2E36" d="M81.173,76.269c0,1.478-1.196,2.668-2.67,2.668c-1.476,0-2.668-1.19-2.668-2.668
			c0-1.475,1.192-2.668,2.668-2.668C79.977,73.601,81.173,74.794,81.173,76.269z"/>
		<path fill="#2C2E36" d="M94.039,74.633c0,1.477-1.191,2.672-2.665,2.672c-1.477,0-2.674-1.195-2.674-2.672
			c0-1.471,1.197-2.668,2.674-2.668C92.848,71.965,94.039,73.162,94.039,74.633z"/>
		<path fill="#2C2E36" d="M98.661,86.195c0,1.477-1.197,2.674-2.67,2.674c-1.478,0-2.672-1.197-2.672-2.674
			c0-1.474,1.194-2.664,2.672-2.664C97.464,83.531,98.661,84.722,98.661,86.195z"/>
		<path fill="#2C2E36" d="M79.82,88.318c0,1.475-1.19,2.668-2.668,2.668c-1.476,0-2.67-1.193-2.67-2.668
			c0-1.478,1.194-2.668,2.67-2.668C78.63,85.65,79.82,86.841,79.82,88.318z"/>
	</g>
</g>
</svg>
