<?xml version="1.0" encoding="utf-8"?>
<!-- Generator: Adobe Illustrator 16.0.5, SVG Export Plug-In . SVG Version: 6.00 Build 0)  -->
<!DOCTYPE svg PUBLIC "-//W3C//DTD SVG 1.1//EN" "http://www.w3.org/Graphics/SVG/1.1/DTD/svg11.dtd">
<svg version="1.1" id="图层_1" xmlns="http://www.w3.org/2000/svg" xmlns:xlink="http://www.w3.org/1999/xlink" x="0px" y="0px"
	 width="345.116px" height="93.006px" viewBox="0 0 345.116 93.006" enable-background="new 0 0 345.116 93.006"
	 xml:space="preserve">
<g>
	<path fill="#00C800" d="M38.34,58.831c-0.476,0.241-1.013,0.379-1.583,0.379c-1.316,0-2.462-0.725-3.064-1.797l-0.229-0.506
		l-9.596-21.055c-0.104-0.229-0.169-0.487-0.169-0.74c0-0.969,0.787-1.757,1.759-1.757c0.395,0,0.757,0.13,1.05,0.35l11.323,8.061
		c0.828,0.542,1.814,0.859,2.879,0.859c0.635,0,1.239-0.118,1.802-0.323l53.253-23.701C86.219,7.352,70.498,0,52.709,0
		C23.598,0,0,19.665,0,43.924c0,13.235,7.101,25.148,18.211,33.2c0.893,0.636,1.478,1.681,1.478,2.86
		c0,0.39-0.085,0.748-0.186,1.121c-0.888,3.311-2.309,8.611-2.377,8.859c-0.108,0.415-0.281,0.85-0.281,1.285
		c0,0.969,0.786,1.756,1.757,1.756c0.382,0,0.692-0.142,1.014-0.328l11.54-6.66c0.868-0.502,1.786-0.812,2.799-0.812
		c0.538,0,1.058,0.083,1.549,0.233c5.384,1.548,11.191,2.408,17.206,2.408c29.107,0,52.708-19.666,52.708-43.924
		c0-7.348-2.177-14.268-6.004-20.354l-60.688,35.04L38.34,58.831z"/>
	<rect x="204.159" y="37.721" fill="#020202" width="29.555" height="2.497"/>
	<rect x="204.159" y="46.047" fill="#020202" width="29.555" height="2.706"/>
	<path fill="#020202" d="M204.913,71.992h28.047V56.073h-28.047V71.992z M230.257,69.495H207.62V58.572h22.637V69.495z"/>
	<path fill="#020202" d="M197.706,22.325c-2.639,9.295-6.383,17.479-11.237,24.554c0.001,0.003,0.003,0.006,0.005,0.009l1.477,2.561
		c1.724-2.55,3.451-5.418,5.178-8.604v31.328h2.705V35.225c1.713-3.688,3.17-7.511,4.383-11.451L197.706,22.325z"/>
	<path fill="#020202" d="M219.146,29.188l2.123-1.223c-0.417-0.969-2.191-4.599-2.744-5.846l-2.496,1.442
		c0.886,1.667,1.723,3.335,2.494,5.002c0.136,0.279,0.206,0.487,0.206,0.624h-17.483v2.705h35.592v-2.705H219.146z"/>
	<polygon fill="#020202" points="152.402,23.051 154.899,23.051 154.899,36.373 160.104,36.373 160.104,27.006 162.601,27.006 
		162.601,38.871 144.493,38.871 144.493,27.006 146.991,27.006 146.991,36.373 152.402,36.373 	"/>
	<rect x="145.326" y="44.281" fill="#020202" width="16.027" height="2.497"/>
	<path fill="#020202" d="M163.631,58.771l-4.151,3.561V52.191H145.95v3.954c0.391,5.6-0.99,9.548-4.142,11.848l1.445,2.506
		c3.877-3.193,5.68-7.626,5.402-13.313v-2.497h8.326v6.036c-0.102,2.048-0.203,2.729-0.935,3.743l1.562,2.705
		c1.385-1.112,3.811-3.187,7.271-6.232L163.631,58.771z"/>
	<path fill="#020202" d="M140.69,22.536c-2.583,5.275-5.698,9.623-9.343,13.04l1.522,2.638c4.146-4.155,7.534-8.929,10.163-14.325
		L140.69,22.536z"/>
	<path fill="#020202" d="M140.331,36.165c-2.482,6.207-5.724,11.59-9.714,16.152l1.447,2.508c1.644-1.92,3.218-3.908,4.729-5.964
		v23.311h2.497V44.697c1.225-2.174,2.379-4.556,3.474-7.134L140.331,36.165z"/>
	<path fill="#020202" d="M182.153,34.703v-2.497H170.29c1.008-3.037,2.219-6.666,2.622-9.779l-2.622-0.003
		c-1.742,8.166-4.323,15.037-7.742,20.619l1.579,2.737c0.276-0.55,0.661-1.32,1.167-2.335c0.553-0.97,0.971-1.734,1.251-2.289
		c0.832,7.355,2.289,13.183,4.37,17.482c-1.985,3.44-4.992,6.942-8.991,10.506l1.502,2.603c4.296-4.024,7.209-7.489,8.737-10.402
		c1.804,3.258,4.866,7.112,8.259,10.558l1.522-2.638c-3.553-3.393-6.63-7.151-8.323-10.418c3.049-5.547,4.923-13.598,5.619-24.144
		H182.153z M172.371,55.725c-1.804-4.579-3.121-10.752-3.954-18.523c0.277-0.833,0.625-1.665,1.041-2.498h7.285
		C176.186,43.585,174.729,50.594,172.371,55.725"/>
	<path d="M324.565,59.199c-1.819-3.592-5.563-9.821-8.596-14.367l2.26-1.122c3.085,4.546,6.887,10.606,8.705,13.975L324.565,59.199z
		"/>
	<path d="M290.905,71.701l0.713-2.356c-8.481-1.27-15.828-3.689-21.976-7.283c6.614-4.377,11.958-10.158,15.262-17.846l-1.762-1.18
		l-0.551,0.113h-14.271v-9.879h21.654v-2.693h-21.654v-9.26h-2.643v9.26h-21.6v2.693h21.6v9.879h-14.696v2.638
		c3.14,6.622,7.974,12.065,13.759,16.163c-6.499,3.665-14.152,6.044-22.037,7.513l0.768,2.513c0.017,0.04,0.043,0.096,0.057,0.132
		c8.431-1.684,16.641-4.376,23.636-8.473c6.557,4.097,14.49,6.847,23.637,8.249C290.832,71.83,290.871,71.76,290.905,71.701
		 M254.107,45.787h26.887c-3.086,6.229-7.878,10.999-13.773,14.76C261.544,56.675,257.081,51.792,254.107,45.787"/>
	<path d="M310.295,21.709c-3.263,8.828-8.503,17.315-14.151,23.043l1.126,2.854c0.022,0.045,0.062,0.105,0.079,0.145
		c2.367-2.356,4.571-5.163,6.664-8.25v32.553h2.646V35.348c2.37-4.041,4.464-8.362,6.171-12.854L310.295,21.709z"/>
	<path d="M337.679,34.001V21.99h-2.646v12.011h-23.084v2.694h23.084v31.204c0,1.29-0.44,1.627-1.708,1.738
		c-1.005,0.046-2.089,0.286-4.957,0.303l0.009,2.356c3.907,0.023,5.225-0.044,6.712-0.47c1.764-0.449,2.59-1.346,2.59-3.984V36.695
		h7.438v-2.694H337.679z"/>
</g>
</svg>
