<?xml version="1.0" encoding="utf-8"?>
<!-- Generator: Adobe Illustrator 16.0.5, SVG Export Plug-In . SVG Version: 6.00 Build 0)  -->
<!DOCTYPE svg PUBLIC "-//W3C//DTD SVG 1.1//EN" "http://www.w3.org/Graphics/SVG/1.1/DTD/svg11.dtd">
<svg version="1.1" id="图层_1" xmlns="http://www.w3.org/2000/svg" xmlns:xlink="http://www.w3.org/1999/xlink" x="0px" y="0px"
	 width="113.706px" height="44.061px" viewBox="0 0 113.706 44.061" enable-background="new 0 0 113.706 44.061"
	 xml:space="preserve">
<g>
	<defs>
		<rect id="SVGID_1_" width="113.706" height="44.061"/>
	</defs>
	<clipPath id="SVGID_2_">
		<use xlink:href="#SVGID_1_"  overflow="visible"/>
	</clipPath>
	<path clip-path="url(#SVGID_2_)" d="M58.821,16.334h7.981v-2.532h1.44v2.532h7.611v1.283h-7.611v2.601H73.2v1.213
		c-1.055,2.332-2.549,4.279-4.481,5.845c1.916,1.037,4.376,1.772,7.382,2.206c-0.422,0.586-0.756,1.096-1.002,1.529
		c-3.346-0.662-5.915-1.597-7.708-2.804c-1.916,1.184-4.532,2.206-7.849,3.067c-0.234-0.539-0.491-1.002-0.773-1.389
		c3.194-0.715,5.681-1.573,7.462-2.575c-1.699-1.459-3.014-3.396-3.946-5.81h-1.74v-1.283h6.259v-2.601h-7.981V16.334z
		 M67.479,26.494c1.816-1.377,3.156-3.041,4.017-4.993H63.77C64.625,23.617,65.861,25.281,67.479,26.494 M77.174,23.892
		c-0.211-0.785-0.394-1.342-0.546-1.67c1.63-2.273,2.965-5.068,4.009-8.385l1.44,0.545c-0.486,1.307-0.983,2.523-1.494,3.648v13.069
		h-1.405V20.825C78.526,21.979,77.858,23.001,77.174,23.892 M81.743,17.845h8.051v-3.849h1.425v3.849h2.548v1.336h-2.548v8.895
		c0,1.828-0.827,2.754-2.479,2.777c-0.551,0.012-1.43,0.006-2.637-0.019c-0.059-0.456-0.152-0.983-0.281-1.581
		c1.125,0.094,1.992,0.141,2.603,0.141c0.539,0.012,0.901-0.105,1.089-0.353c0.188-0.222,0.281-0.685,0.281-1.388v-8.473h-8.051
		V17.845z M85.312,26.072c-0.82-1.605-1.629-2.977-2.425-4.113l1.177-0.739c0.715,1.032,1.553,2.385,2.514,4.061L85.312,26.072z
		 M94.821,28.849h7.771v-4.008h-6.259v-1.301h6.259v-2.566h-6.927v-1.301h15.328v1.301h-6.908v2.566h6.311v1.301h-6.311v4.008h7.857
		v1.317H94.821V28.849z M95.385,16.193h7.672c-0.293-0.58-0.647-1.195-1.063-1.846l1.283-0.597c0.481,0.656,0.908,1.335,1.283,2.039
		l-0.782,0.404h7.55v2.953h-1.424v-1.635H96.808v1.635h-1.423V16.193z M108.198,28.48c-0.598-0.809-1.276-1.617-2.039-2.426
		l1.037-0.809c0.81,0.773,1.523,1.559,2.146,2.355L108.198,28.48z"/>
</g>
<g>
	<defs>
		<path id="SVGID_3_" d="M9.45,1.109c-4.459,0-8.076,3.617-8.076,8.077v25.847c0,4.46,3.616,8.077,8.076,8.077h25.848
			c3.973,0,7.279-2.872,7.951-6.655l0.125-6.591V9.186c0-4.46-3.616-8.077-8.076-8.077H9.45z"/>
	</defs>
	<clipPath id="SVGID_4_">
		<use xlink:href="#SVGID_3_"  overflow="visible"/>
	</clipPath>
	<rect x="-3.626" y="-3.89" clip-path="url(#SVGID_4_)" fill="#FFFFFF" width="52" height="52"/>
</g>
<g>
	<defs>
		<path id="SVGID_5_" d="M6.221,28.087c-0.324,1.614,0.645,5.491,6.784,5.491c3.778,0,7.42-2.298,10.377-6.152
			c-4.217-2.055-7.725-3.056-11.65-3.056C8.32,24.371,6.544,26.471,6.221,28.087 M9.45,1.109c-4.459,0-8.076,3.617-8.076,8.077
			v25.847c0,4.46,3.616,8.077,8.076,8.077h25.848c3.973,0,7.279-2.872,7.951-6.655c-2.141-0.921-11.426-4.929-16.26-7.24
			c-3.679,4.456-7.534,7.131-13.343,7.131c-5.811,0-9.687-3.574-9.22-7.956c0.307-2.876,2.279-7.572,10.841-6.764
			c4.511,0.426,6.578,1.267,10.262,2.48c0.946-1.745,1.741-3.666,2.338-5.711H11.551v-1.616h8.072v-2.907H9.775v-1.777h9.848V7.905
			c0,0,0.092-0.657,0.812-0.657h4.039v4.846h10.5v1.777h-10.5v2.907h8.561c-0.784,3.208-1.976,6.151-3.474,8.727
			c2.491,0.897,13.813,4.359,13.813,4.359V9.186c0-4.46-3.616-8.077-8.076-8.077H9.45z"/>
	</defs>
	<clipPath id="SVGID_6_">
		<use xlink:href="#SVGID_5_"  overflow="visible"/>
	</clipPath>
	<rect x="-3.626" y="-3.89" clip-path="url(#SVGID_6_)" fill="#00A0E8" width="52" height="52"/>
</g>
</svg>
